<?xml version="1.0" encoding="UTF-8" standalone="no"?>
<!-- Created with Inkscape (http://www.inkscape.org/) -->

<svg
   width="135.4445mm"
   height="135.26479mm"
   viewBox="0 0 135.4445 135.26479"
   version="1.1"
   id="svg5"
   xml:space="preserve"
   xmlns:inkscape="http://www.inkscape.org/namespaces/inkscape"
   xmlns:sodipodi="http://sodipodi.sourceforge.net/DTD/sodipodi-0.dtd"
   xmlns="http://www.w3.org/2000/svg"
   xmlns:svg="http://www.w3.org/2000/svg"><sodipodi:namedview
     id="namedview7"
     pagecolor="#ffffff"
     bordercolor="#000000"
     borderopacity="0.25"
     inkscape:showpageshadow="2"
     inkscape:pageopacity="0.0"
     inkscape:pagecheckerboard="0"
     inkscape:deskcolor="#d1d1d1"
     inkscape:document-units="mm"
     showgrid="false" /><defs
     id="defs2" /><g
     inkscape:label="Layer 1"
     inkscape:groupmode="layer"
     id="layer1"
     transform="translate(-35.901566,-72.058317)"><path
       style="fill:#ffffff;stroke-width:0.264583"
       d="m 66.881561,207.00196 c -2.191652,-0.68763 -4.012073,-2.34487 -5.020339,-4.57031 -0.408319,-0.90124 -0.46159,-3.08374 -0.581768,-23.83473 l -0.132292,-22.84264 -11.906249,-6.86445 c -6.548438,-3.77544 -12.233672,-7.22008 -12.633854,-7.65475 -0.795136,-0.86367 -0.920956,-1.85468 -0.363176,-2.86054 0.222495,-0.40123 4.721215,-3.15099 12.624478,-7.71647 l 12.278801,-7.0931 0.132292,-22.84291 c 0.130457,-22.526213 0.140015,-22.859598 0.689413,-24.046972 0.8145,-1.760321 2.057356,-3.042209 3.760455,-3.878556 l 1.503256,-0.73821 h 36.380202 36.38021 l 1.50326,0.73821 c 1.7031,0.836347 2.94595,2.118235 3.76045,3.878556 0.55095,1.190732 0.55792,1.456556 0.62895,24.002652 l 0.0718,22.7986 12.32063,7.09932 c 12.56243,7.23866 13.068,7.59009 13.068,9.0837 0,1.491 -0.51272,1.84739 -13.06951,9.08448 l -12.31912,7.10009 -0.0718,22.79782 c -0.071,22.54532 -0.078,22.81115 -0.62895,24.00189 -0.8145,1.76031 -2.05735,3.0422 -3.76045,3.87855 l -1.50326,0.73821 -35.98333,0.0504 c -29.674213,0.0415 -36.18405,-0.0126 -37.128099,-0.30881 z M 139.29316,201.724 c 0.97739,-0.50543 1.36129,-1.44724 1.36129,-3.33959 v -1.57505 H 103.61278 66.57112 l 0.0094,1.65365 c 0.01035,1.82482 0.385562,2.73831 1.342663,3.26879 0.978574,0.54238 70.320717,0.5348 71.369997,-0.008 z m 1.36129,-26.48749 v -16.28118 l -0.55242,0.29565 c -0.30384,0.1626 -8.14271,4.67815 -17.41971,10.03455 -19.14638,11.05481 -18.30765,10.5905 -19.13036,10.5905 -0.33895,0 -8.05416,-4.29602 -17.144912,-9.54671 -9.090749,-5.2507 -17.272777,-9.96391 -18.182282,-10.47382 l -1.653646,-0.9271 v 16.29465 16.29464 h 37.04166 37.04167 z m -18.3844,-11.79929 18.3844,-10.61798 v -13.16339 -13.1634 l -18.41273,-10.6292 c -10.127,-5.84606 -18.56459,-10.5928 -18.7502,-10.54832 -0.1856,0.0445 -8.568622,4.83204 -18.628929,10.639 L 66.57112,126.51204 v 13.14648 13.14648 l 18.322395,10.60219 c 10.077317,5.83121 18.473085,10.6125 18.657265,10.6251 0.18418,0.0126 8.60785,-4.75518 18.71927,-10.59507 z m -30.651761,-3.20628 c -7.49595,-4.34539 -11.18639,-6.62986 -11.433852,-7.07783 -0.543396,-0.98367 -0.556495,-25.88675 -0.01418,-26.93549 0.275746,-0.53324 3.214428,-2.35584 11.537544,-7.15572 9.916259,-5.71863 11.275579,-6.42913 12.131579,-6.34108 1.43106,0.1472 22.707,12.51267 23.21308,13.49133 0.55152,1.06652 0.55152,25.8279 0,26.89443 -0.55769,1.07845 -21.82433,13.36791 -23.3074,13.46876 -0.95664,0.0651 -2.12186,-0.54456 -12.126783,-6.3444 z m 9.341701,-9.9221 -0.007,-9.19427 -6.80606,-3.90672 c -3.743333,-2.1487 -7.312075,-4.20928 -7.930538,-4.57906 l -1.124479,-0.67234 0.0016,9.20927 0.0016,9.20927 7.869657,4.54999 c 4.32831,2.50249 7.89942,4.55632 7.9358,4.56406 0.0364,0.008 0.063,-4.12335 0.0592,-9.1802 z m 14.76821,3.77551 6.40542,-3.69897 v -9.18127 -9.18127 l -5.22552,3.02684 c -2.87404,1.66476 -6.44392,3.7104 -7.93306,4.54587 l -2.70754,1.51902 -0.004,9.20959 -0.004,9.2096 1.53208,-0.87522 c 0.84264,-0.48137 4.41452,-2.53976 7.9375,-4.57419 z m -5.83167,-21.07802 c 3.31066,-1.91292 6.83249,-3.94774 7.82629,-4.52184 l 1.80692,-1.0438 -7.94433,-4.58817 -7.94432,-4.58816 -7.81936,4.50676 c -4.300649,2.47872 -7.817051,4.58392 -7.814228,4.67823 0.0067,0.22314 15.105218,8.97813 15.539028,9.01041 0.18184,0.0135 3.03934,-1.54051 6.35,-3.45343 z m -48.677509,1.64702 -0.07186,-5.00601 -8.532812,4.93287 c -4.693047,2.71307 -8.532812,4.99869 -8.532812,5.07915 0,0.0805 3.839765,2.36608 8.532812,5.07916 l 8.532812,4.93287 0.07186,-5.00602 c 0.03952,-2.7533 0.03952,-7.25871 0,-10.01202 z m 94.185949,9.65083 c 4.25648,-2.4518 7.73906,-4.54197 7.73906,-4.64482 0,-0.10284 -3.48258,-2.19301 -7.73906,-4.64482 -4.25648,-2.4518 -8.12602,-4.68368 -8.59896,-4.95972 l -0.85989,-0.50189 v 10.10643 10.10644 l 0.85989,-0.50189 c 0.47294,-0.27605 4.34248,-2.50792 8.59896,-4.95973 z M 86.407048,108.98941 c 9.090752,-5.2507 16.805962,-9.546718 17.144912,-9.546718 0.82271,0 -0.016,-0.46431 19.13036,10.590508 9.277,5.3564 17.11587,9.87194 17.41971,10.03455 l 0.55242,0.29565 V 104.08221 87.801029 l -9.45885,0.0088 -9.45886,0.0088 -0.79375,1.371221 c -0.96239,1.662562 -2.59924,2.956812 -4.42532,3.499102 -2.00632,0.59581 -23.798714,0.59722 -25.804161,0.002 -1.764037,-0.52387 -3.752016,-2.11539 -4.571216,-3.659597 L 85.489735,87.801329 H 76.030429 66.57112 v 16.294641 16.29465 l 1.653646,-0.9271 c 0.909505,-0.5099 9.091533,-5.22312 18.182282,-10.47381 z M 115.39414,87.484935 c 0.80355,-0.366124 1.44781,-1.467624 1.44781,-2.47535 0,-0.444501 0.32921,-1.030262 0.89958,-1.600639 l 0.89959,-0.899583 h 11.00666 11.00667 v -1.575051 c 0,-0.866277 -0.14224,-1.887238 -0.3161,-2.2688 -0.69487,-1.525085 1.26379,-1.447816 -36.69998,-1.447816 -26.514582,0 -35.09276,0.07612 -35.619434,0.316094 -0.985295,0.448931 -1.447816,1.527089 -1.447816,3.374934 v 1.600639 h 10.861055 c 11.780454,0 11.986435,0.0236 12.635349,1.447815 0.173852,0.381563 0.320315,0.956039 0.325472,1.276613 0.01326,0.824099 0.60162,1.787282 1.342662,2.19801 0.870564,0.482517 22.608932,0.531339 23.658482,0.05313 z"
       id="path179"
       inkscape:export-filename="path179.svg"
       inkscape:export-xdpi="96"
       inkscape:export-ydpi="96" /></g></svg>
